<svg width="29" height="29" viewBox="0 0 29 29" fill="none" xmlns="http://www.w3.org/2000/svg">
<path d="M8.7 23.2C7.105 23.2 5.8145 24.505 5.8145 26.1C5.8145 27.695 7.105 29 8.7 29C10.295 29 11.6 27.695 11.6 26.1C11.6 24.505 10.295 23.2 8.7 23.2ZM0 0V2.9H2.9L8.12 13.9055L6.1625 17.458C5.9305 17.864 5.8 18.3425 5.8 18.85C5.8 20.445 7.105 21.75 8.7 21.75H26.1V18.85H9.309C9.106 18.85 8.9465 18.6905 8.9465 18.4875L8.99 18.3135L10.295 15.95H21.0975C22.185 15.95 23.142 15.3555 23.635 14.4565L28.826 5.046C28.942 4.843 29 4.5965 29 4.35C29 3.5525 28.3475 2.9 27.55 2.9H6.1045L4.7415 0H0ZM23.2 23.2C21.605 23.2 20.3145 24.505 20.3145 26.1C20.3145 27.695 21.605 29 23.2 29C24.795 29 26.1 27.695 26.1 26.1C26.1 24.505 24.795 23.2 23.2 23.2Z" fill="white"/>
</svg>
