<svg width="34" height="34" viewBox="0 0 34 34" fill="none" xmlns="http://www.w3.org/2000/svg">
<path d="M16.6667 0C7.46667 0 0 7.46667 0 16.6667C0 25.8667 7.46667 33.3333 16.6667 33.3333C25.8667 33.3333 33.3333 25.8667 33.3333 16.6667C33.3333 7.46667 25.8667 0 16.6667 0ZM16.6667 6.66667C19.8833 6.66667 22.5 9.28333 22.5 12.5C22.5 15.7167 19.8833 18.3333 16.6667 18.3333C13.45 18.3333 10.8333 15.7167 10.8333 12.5C10.8333 9.28333 13.45 6.66667 16.6667 6.66667ZM16.6667 30C13.2833 30 9.28333 28.6333 6.43333 25.2C9.25 23 12.8 21.6667 16.6667 21.6667C20.5333 21.6667 24.0833 23 26.9 25.2C24.05 28.6333 20.05 30 16.6667 30Z" fill="white"/>
</svg>
